<?xml version="1.0" encoding="UTF-8"?>
<svg version="1.1" xmlns="http://www.w3.org/2000/svg" width="1024" height="1024">
<path d="M0 0 C7.55266481 5.30167451 7.55266481 5.30167451 8.921875 8.22265625 C10.34433914 10.87939861 12.16129925 11.05119064 14.92578125 12.09765625 C16.953125 13.90234375 16.953125 13.90234375 18.86328125 15.97265625 C21.94149406 19.29737892 25.12722156 21.63001336 28.92578125 24.09765625 C38.60277399 31.29018359 48.09271424 38.78247424 57.11328125 46.78515625 C59.61617675 49.00316934 62.16527041 51.05944753 64.86328125 53.03515625 C68.72943731 55.8662784 72.23749587 59.00997675 75.75 62.265625 C78.02135734 64.17813235 80.37810271 65.5810854 82.92578125 67.09765625 C84.28769399 68.20936911 85.62244148 69.35531844 86.92578125 70.53515625 C89.21685115 72.59191218 91.48346082 74.52753425 93.92578125 76.41015625 C94.58578125 76.96703125 95.24578125 77.52390625 95.92578125 78.09765625 C95.92578125 78.75765625 95.92578125 79.41765625 95.92578125 80.09765625 C96.64765625 80.34515625 97.36953125 80.59265625 98.11328125 80.84765625 C101.21748111 82.22730063 103.30760812 83.93699061 105.92578125 86.09765625 C106.79976562 86.80664062 107.67375 87.515625 108.57421875 88.24609375 C114.42365873 93.02285706 120.24709001 97.81547065 125.8828125 102.84375 C129.05055037 105.66018998 132.19523587 108.36067379 135.67578125 110.78515625 C138.92578125 113.09765625 138.92578125 113.09765625 140.70703125 114.921875 C144.02173269 118.17238328 147.7634802 120.81811822 151.5 123.5625 C153.01008253 124.69591795 154.47253924 125.89222141 155.92578125 127.09765625 C155.92578125 127.75765625 155.92578125 128.41765625 155.92578125 129.09765625 C156.69921875 129.43796875 156.69921875 129.43796875 157.48828125 129.78515625 C166.08367599 134.41344572 166.08367599 134.41344572 167.92578125 138.09765625 C168.66957031 138.54238281 169.41335938 138.98710937 170.1796875 139.4453125 C173.11059162 141.20885794 175.36986993 143.19930646 177.86328125 145.53515625 C181.39249823 148.77201206 184.89602753 151.50070385 188.92578125 154.09765625 C190.61113737 155.47345716 192.244859 156.90017786 193.8828125 158.33203125 C199.51859636 163.20272781 205.31817532 167.89014986 211.23828125 172.41015625 C236.85417919 192.25670781 236.85417919 192.25670781 239.92578125 203.09765625 C240.53643599 209.47082753 241.04314395 215.85737645 236.92578125 221.09765625 C228.37014291 228.59048238 219.62086682 228.2720851 208.73828125 228.22265625 C207.87525391 228.22652344 207.01222656 228.23039063 206.12304688 228.234375 C202.47456742 228.22879202 199.09222199 228.12542786 195.484375 227.5234375 C192.8443389 226.86119891 192.8443389 226.86119891 190.17578125 228.16015625 C186.99353925 230.90042019 186.14390323 233.86218196 185.73696709 238.03276253 C185.64758022 240.2856903 185.6244714 242.53069438 185.62280273 244.78540039 C185.6143634 245.64058258 185.60592407 246.49576477 185.597229 247.37686157 C185.57141891 250.21218466 185.55926576 253.04740166 185.546875 255.8828125 C185.5306464 257.89636499 185.51346111 259.90990998 185.49537659 261.92344666 C185.44962206 267.25727688 185.41495208 272.59111911 185.38317871 277.92504883 C185.23021308 302.79557145 185.0645039 327.66846221 184.57847786 352.53503227 C184.54266207 354.40338743 184.50937952 356.27179345 184.47903252 358.14024544 C184.31560385 367.96390749 183.89457754 377.71475631 182.98608398 387.50024414 C182.90622537 388.36972655 182.82636675 389.23920897 182.74408817 390.13503933 C181.00697009 407.46191759 172.34371171 423.99813427 159.92578125 436.09765625 C159.28382813 436.7628125 158.641875 437.42796875 157.98046875 438.11328125 C146.27107806 450.17750196 133.08612762 456.05006604 116.92724037 459.6461525 C115.61643692 459.94185311 114.3091278 460.25360696 113.00639915 460.58306503 C86.72258705 467.00076059 57.09355479 464.32721004 30.26824522 464.16437817 C24.41637811 464.13065557 18.56446586 464.10774314 12.71255493 464.08306885 C2.91444016 464.04003841 -6.88359833 463.98823984 -16.68164062 463.93115234 C-27.9802542 463.86544438 -39.27886401 463.81453726 -50.57758391 463.77121043 C-61.5148 463.72887616 -72.4519372 463.67555931 -83.38908005 463.61746979 C-88.01794007 463.59310902 -92.64679238 463.57265219 -97.27568436 463.55544281 C-102.71793842 463.53475754 -108.16005776 463.50444348 -113.60222054 463.46685982 C-115.59030848 463.45465636 -117.57841965 463.44570574 -119.56653786 463.44035912 C-129.60439524 463.41133587 -139.21154517 463.20373791 -149.07421875 461.09765625 C-150.4171082 460.8673212 -151.76079478 460.64155259 -153.10546875 460.421875 C-178.52520446 455.75586495 -196.60680236 441.87320341 -211.2578125 420.984375 C-222.21727797 404.01688499 -224.31946746 386.72041871 -224.46899414 366.99584961 C-224.48657905 365.55510486 -224.504981 364.1143699 -224.52412415 362.67364502 C-224.56318382 359.60622895 -224.59664702 356.53882515 -224.62550545 353.47129631 C-224.67124302 348.61660855 -224.7301358 343.76213108 -224.79063416 338.90760803 C-224.88477562 331.23360042 -224.97052172 323.55952688 -225.05248016 315.88538033 C-225.19951804 302.12346387 -225.35662354 288.36166782 -225.52340502 274.5999766 C-225.58146249 269.7771265 -225.63439475 264.95425559 -225.68314183 260.13130271 C-225.71424648 257.13513829 -225.74910749 254.13902561 -225.78489494 251.14291382 C-225.80063602 249.75702723 -225.81477757 248.37112138 -225.82717896 246.98520088 C-225.84433803 245.08973533 -225.86777209 243.19432971 -225.89149475 241.29893494 C-225.90272401 240.23991942 -225.91395327 239.18090391 -225.9255228 238.08979702 C-226.0777714 235.0261679 -226.5107408 232.11055459 -227.07421875 229.09765625 C-230.87504967 227.85109511 -234.60630261 228.03963399 -238.55078125 228.140625 C-240.04165306 228.16303393 -241.53253948 228.18448705 -243.0234375 228.20507812 C-245.35376254 228.24195499 -247.68332576 228.28474878 -250.01318359 228.34448242 C-260.19779402 228.59296695 -268.92655033 228.40102415 -277.57421875 222.34765625 C-281.04800192 217.13698149 -281.9532815 210.23982549 -281.07421875 204.09765625 C-278.19369216 192.84901759 -270.77503205 185.83504061 -261.34375 179.60546875 C-258.8900679 178.02751985 -258.8900679 178.02751985 -256.07421875 175.66015625 C-254.07421875 174.09765625 -254.07421875 174.09765625 -252.07421875 174.09765625 C-251.74421875 173.10765625 -251.41421875 172.11765625 -251.07421875 171.09765625 C-249.1484375 169.6328125 -249.1484375 169.6328125 -246.76171875 168.16015625 C-243.40985004 166.08255168 -240.84629299 163.89065181 -238.07421875 161.09765625 C-236.15548191 159.59423042 -234.21561734 158.11759256 -232.26171875 156.66015625 C-227.15560826 152.80092075 -222.26431395 148.75113256 -217.44921875 144.53515625 C-201.45148318 130.53201803 -201.45148318 130.53201803 -195.69921875 126.84765625 C-192.99410324 125.16870596 -192.99410324 125.16870596 -190.7734375 122.79296875 C-188.05684614 120.08030878 -185.228794 117.65698012 -182.26171875 115.22265625 C-178.82132319 112.3942818 -175.42683945 109.53826642 -172.13671875 106.53515625 C-168.29949578 103.1305221 -164.09971048 100.30710363 -159.8605957 97.43774414 C-155.96885222 94.78111505 -152.43274203 91.93678182 -148.953125 88.76953125 C-146.95350297 86.9902418 -144.88340505 85.35414695 -142.76171875 83.72265625 C-136.01173388 78.53215064 -129.38867877 73.17928014 -123.01171875 67.53515625 C-119.34447811 64.29277885 -115.54538385 61.24093882 -111.7109375 58.19921875 C-108.97909659 56.02184036 -106.27439056 53.81415836 -103.57421875 51.59765625 C-98.44105151 47.38918723 -93.28827481 43.20570042 -88.07421875 39.09765625 C-87.36136719 38.52789062 -86.64851562 37.958125 -85.9140625 37.37109375 C-84.07421875 36.09765625 -84.07421875 36.09765625 -82.07421875 36.09765625 C-81.74421875 35.10765625 -81.41421875 34.11765625 -81.07421875 33.09765625 C-80.26984375 32.78828125 -79.46546875 32.47890625 -78.63671875 32.16015625 C-75.93672532 31.36844484 -75.93672532 31.36844484 -75.07421875 29.09765625 C-74.07421875 27.09765625 -74.07421875 27.09765625 -71.44921875 25.84765625 C-70.66546875 25.60015625 -69.88171875 25.35265625 -69.07421875 25.09765625 C-69.07421875 24.43765625 -69.07421875 23.77765625 -69.07421875 23.09765625 C-67.74609375 21.90625 -67.74609375 21.90625 -65.82421875 20.53515625 C-65.09589844 20.00535156 -64.36757813 19.47554687 -63.6171875 18.9296875 C-62.35841797 18.02283203 -62.35841797 18.02283203 -61.07421875 17.09765625 C-55.32218598 12.88676352 -49.65353963 8.72958557 -44.44921875 3.84765625 C-31.05432471 -8.33393217 -15.25010162 -9.43684814 0 0 Z " fill="#FAF9F8" transform="translate(532.07421875,159.90234375)"/>
<path d="M0 0 C7.55266481 5.30167451 7.55266481 5.30167451 8.921875 8.22265625 C10.34433914 10.87939861 12.16129925 11.05119064 14.92578125 12.09765625 C16.953125 13.90234375 16.953125 13.90234375 18.86328125 15.97265625 C21.94149406 19.29737892 25.12722156 21.63001336 28.92578125 24.09765625 C38.60277399 31.29018359 48.09271424 38.78247424 57.11328125 46.78515625 C59.61617675 49.00316934 62.16527041 51.05944753 64.86328125 53.03515625 C68.72943731 55.8662784 72.23749587 59.00997675 75.75 62.265625 C78.02135734 64.17813235 80.37810271 65.5810854 82.92578125 67.09765625 C84.28769399 68.20936911 85.62244148 69.35531844 86.92578125 70.53515625 C89.21685115 72.59191218 91.48346082 74.52753425 93.92578125 76.41015625 C94.58578125 76.96703125 95.24578125 77.52390625 95.92578125 78.09765625 C95.92578125 78.75765625 95.92578125 79.41765625 95.92578125 80.09765625 C96.64765625 80.34515625 97.36953125 80.59265625 98.11328125 80.84765625 C101.21748111 82.22730063 103.30760812 83.93699061 105.92578125 86.09765625 C106.79976562 86.80664062 107.67375 87.515625 108.57421875 88.24609375 C114.42365873 93.02285706 120.24709001 97.81547065 125.8828125 102.84375 C129.05055037 105.66018998 132.19523587 108.36067379 135.67578125 110.78515625 C138.92578125 113.09765625 138.92578125 113.09765625 140.70703125 114.921875 C144.02173269 118.17238328 147.7634802 120.81811822 151.5 123.5625 C153.01008253 124.69591795 154.47253924 125.89222141 155.92578125 127.09765625 C155.92578125 127.75765625 155.92578125 128.41765625 155.92578125 129.09765625 C156.69921875 129.43796875 156.69921875 129.43796875 157.48828125 129.78515625 C166.08367599 134.41344572 166.08367599 134.41344572 167.92578125 138.09765625 C168.66957031 138.54238281 169.41335938 138.98710937 170.1796875 139.4453125 C173.11059162 141.20885794 175.36986993 143.19930646 177.86328125 145.53515625 C181.39249823 148.77201206 184.89602753 151.50070385 188.92578125 154.09765625 C190.61113737 155.47345716 192.244859 156.90017786 193.8828125 158.33203125 C199.51859636 163.20272781 205.31817532 167.89014986 211.23828125 172.41015625 C236.85417919 192.25670781 236.85417919 192.25670781 239.92578125 203.09765625 C240.53643599 209.47082753 241.04314395 215.85737645 236.92578125 221.09765625 C228.37014291 228.59048238 219.62086682 228.2720851 208.73828125 228.22265625 C207.87525391 228.22652344 207.01222656 228.23039063 206.12304688 228.234375 C202.47456742 228.22879202 199.09222199 228.12542786 195.484375 227.5234375 C192.8443389 226.86119891 192.8443389 226.86119891 190.17578125 228.16015625 C186.99353925 230.90042019 186.14390323 233.86218196 185.73696709 238.03276253 C185.64758022 240.2856903 185.6244714 242.53069438 185.62280273 244.78540039 C185.6143634 245.64058258 185.60592407 246.49576477 185.597229 247.37686157 C185.57141891 250.21218466 185.55926576 253.04740166 185.546875 255.8828125 C185.5306464 257.89636499 185.51346111 259.90990998 185.49537659 261.92344666 C185.44962206 267.25727688 185.41495208 272.59111911 185.38317871 277.92504883 C185.23021308 302.79557145 185.0645039 327.66846221 184.57847786 352.53503227 C184.54266207 354.40338743 184.50937952 356.27179345 184.47903252 358.14024544 C184.31560385 367.96390749 183.89457754 377.71475631 182.98608398 387.50024414 C182.90622537 388.36972655 182.82636675 389.23920897 182.74408817 390.13503933 C181.00697009 407.46191759 172.34371171 423.99813427 159.92578125 436.09765625 C159.28382813 436.7628125 158.641875 437.42796875 157.98046875 438.11328125 C146.27107806 450.17750196 133.08612762 456.05006604 116.92724037 459.6461525 C115.61643692 459.94185311 114.3091278 460.25360696 113.00639915 460.58306503 C86.72258705 467.00076059 57.09355479 464.32721004 30.26824522 464.16437817 C24.41637811 464.13065557 18.56446586 464.10774314 12.71255493 464.08306885 C2.91444016 464.04003841 -6.88359833 463.98823984 -16.68164062 463.93115234 C-27.9802542 463.86544438 -39.27886401 463.81453726 -50.57758391 463.77121043 C-61.5148 463.72887616 -72.4519372 463.67555931 -83.38908005 463.61746979 C-88.01794007 463.59310902 -92.64679238 463.57265219 -97.27568436 463.55544281 C-102.71793842 463.53475754 -108.16005776 463.50444348 -113.60222054 463.46685982 C-115.59030848 463.45465636 -117.57841965 463.44570574 -119.56653786 463.44035912 C-129.60439524 463.41133587 -139.21154517 463.20373791 -149.07421875 461.09765625 C-150.4171082 460.8673212 -151.76079478 460.64155259 -153.10546875 460.421875 C-178.52520446 455.75586495 -196.60680236 441.87320341 -211.2578125 420.984375 C-222.21727797 404.01688499 -224.31946746 386.72041871 -224.46899414 366.99584961 C-224.48657905 365.55510486 -224.504981 364.1143699 -224.52412415 362.67364502 C-224.56318382 359.60622895 -224.59664702 356.53882515 -224.62550545 353.47129631 C-224.67124302 348.61660855 -224.7301358 343.76213108 -224.79063416 338.90760803 C-224.88477562 331.23360042 -224.97052172 323.55952688 -225.05248016 315.88538033 C-225.19951804 302.12346387 -225.35662354 288.36166782 -225.52340502 274.5999766 C-225.58146249 269.7771265 -225.63439475 264.95425559 -225.68314183 260.13130271 C-225.71424648 257.13513829 -225.74910749 254.13902561 -225.78489494 251.14291382 C-225.80063602 249.75702723 -225.81477757 248.37112138 -225.82717896 246.98520088 C-225.84433803 245.08973533 -225.86777209 243.19432971 -225.89149475 241.29893494 C-225.90272401 240.23991942 -225.91395327 239.18090391 -225.9255228 238.08979702 C-226.0777714 235.0261679 -226.5107408 232.11055459 -227.07421875 229.09765625 C-230.87504967 227.85109511 -234.60630261 228.03963399 -238.55078125 228.140625 C-240.04165306 228.16303393 -241.53253948 228.18448705 -243.0234375 228.20507812 C-245.35376254 228.24195499 -247.68332576 228.28474878 -250.01318359 228.34448242 C-260.19779402 228.59296695 -268.92655033 228.40102415 -277.57421875 222.34765625 C-281.04800192 217.13698149 -281.9532815 210.23982549 -281.07421875 204.09765625 C-278.19369216 192.84901759 -270.77503205 185.83504061 -261.34375 179.60546875 C-258.8900679 178.02751985 -258.8900679 178.02751985 -256.07421875 175.66015625 C-254.07421875 174.09765625 -254.07421875 174.09765625 -252.07421875 174.09765625 C-251.74421875 173.10765625 -251.41421875 172.11765625 -251.07421875 171.09765625 C-249.1484375 169.6328125 -249.1484375 169.6328125 -246.76171875 168.16015625 C-243.40985004 166.08255168 -240.84629299 163.89065181 -238.07421875 161.09765625 C-236.15548191 159.59423042 -234.21561734 158.11759256 -232.26171875 156.66015625 C-227.15560826 152.80092075 -222.26431395 148.75113256 -217.44921875 144.53515625 C-201.45148318 130.53201803 -201.45148318 130.53201803 -195.69921875 126.84765625 C-192.99410324 125.16870596 -192.99410324 125.16870596 -190.7734375 122.79296875 C-188.05684614 120.08030878 -185.228794 117.65698012 -182.26171875 115.22265625 C-178.82132319 112.3942818 -175.42683945 109.53826642 -172.13671875 106.53515625 C-168.29949578 103.1305221 -164.09971048 100.30710363 -159.8605957 97.43774414 C-155.96885222 94.78111505 -152.43274203 91.93678182 -148.953125 88.76953125 C-146.95350297 86.9902418 -144.88340505 85.35414695 -142.76171875 83.72265625 C-136.01173388 78.53215064 -129.38867877 73.17928014 -123.01171875 67.53515625 C-119.34447811 64.29277885 -115.54538385 61.24093882 -111.7109375 58.19921875 C-108.97909659 56.02184036 -106.27439056 53.81415836 -103.57421875 51.59765625 C-98.44105151 47.38918723 -93.28827481 43.20570042 -88.07421875 39.09765625 C-87.36136719 38.52789062 -86.64851562 37.958125 -85.9140625 37.37109375 C-84.07421875 36.09765625 -84.07421875 36.09765625 -82.07421875 36.09765625 C-81.74421875 35.10765625 -81.41421875 34.11765625 -81.07421875 33.09765625 C-80.26984375 32.78828125 -79.46546875 32.47890625 -78.63671875 32.16015625 C-75.93672532 31.36844484 -75.93672532 31.36844484 -75.07421875 29.09765625 C-74.07421875 27.09765625 -74.07421875 27.09765625 -71.44921875 25.84765625 C-70.66546875 25.60015625 -69.88171875 25.35265625 -69.07421875 25.09765625 C-69.07421875 24.43765625 -69.07421875 23.77765625 -69.07421875 23.09765625 C-67.74609375 21.90625 -67.74609375 21.90625 -65.82421875 20.53515625 C-65.09589844 20.00535156 -64.36757813 19.47554687 -63.6171875 18.9296875 C-62.35841797 18.02283203 -62.35841797 18.02283203 -61.07421875 17.09765625 C-55.32218598 12.88676352 -49.65353963 8.72958557 -44.44921875 3.84765625 C-31.05432471 -8.33393217 -15.25010162 -9.43684814 0 0 Z M-23.01171875 36.09765625 C-23.82769531 36.73960937 -24.64367187 37.3815625 -25.484375 38.04296875 C-26.33902344 38.72101563 -27.19367188 39.3990625 -28.07421875 40.09765625 C-28.87730469 40.73445313 -29.68039062 41.37125 -30.5078125 42.02734375 C-36.74236771 46.99503734 -42.91227185 52.0403721 -49.07421875 57.09765625 C-55.20561911 62.12986999 -61.35614249 67.1337181 -67.55859375 72.078125 C-70.16356146 74.16938013 -72.74502139 76.28722041 -75.32421875 78.41015625 C-79.5773609 81.89821476 -83.87295896 85.32618827 -88.19921875 88.72265625 C-88.7907373 89.18768555 -89.38225586 89.65271484 -89.99169922 90.13183594 C-92.63371335 92.20397504 -95.28552898 94.25728114 -97.96484375 96.28125 C-98.7846875 96.90128906 -99.60453125 97.52132812 -100.44921875 98.16015625 C-101.15820312 98.68738281 -101.8671875 99.21460938 -102.59765625 99.7578125 C-103.08492188 100.19996094 -103.5721875 100.64210938 -104.07421875 101.09765625 C-104.07421875 101.75765625 -104.07421875 102.41765625 -104.07421875 103.09765625 C-104.61046875 103.34515625 -105.14671875 103.59265625 -105.69921875 103.84765625 C-108.65661695 105.40418162 -111.37145926 107.13201298 -114.07421875 109.09765625 C-114.07421875 109.75765625 -114.07421875 110.41765625 -114.07421875 111.09765625 C-114.65993652 111.3702124 -115.2456543 111.64276855 -115.84912109 111.92358398 C-118.02896462 113.07377792 -119.77076355 114.32643729 -121.67578125 115.8828125 C-122.330625 116.41326172 -122.98546875 116.94371094 -123.66015625 117.49023438 C-124.33304687 118.04130859 -125.0059375 118.59238281 -125.69921875 119.16015625 C-127.04425861 120.25682228 -128.39055497 121.35194958 -129.73828125 122.4453125 C-130.62700928 123.1724646 -130.62700928 123.1724646 -131.53369141 123.91430664 C-133.07421875 125.09765625 -133.07421875 125.09765625 -135.07421875 126.09765625 C-135.07421875 126.75765625 -135.07421875 127.41765625 -135.07421875 128.09765625 C-135.6664624 128.37601318 -136.25870605 128.65437012 -136.86889648 128.94116211 C-138.92053039 130.01706046 -140.56423231 131.14871055 -142.359375 132.6015625 C-142.9663623 133.08995605 -143.57334961 133.57834961 -144.19873047 134.08154297 C-144.8382666 134.60248535 -145.47780273 135.12342773 -146.13671875 135.66015625 C-146.80719238 136.20172363 -147.47766602 136.74329102 -148.16845703 137.30126953 C-150.14035287 138.8960397 -152.10795182 140.49595396 -154.07421875 142.09765625 C-155.00878906 142.85691406 -155.94335938 143.61617188 -156.90625 144.3984375 C-160.99003493 147.72945101 -165.05601081 151.08128776 -169.109375 154.44921875 C-170.57646422 155.66579727 -172.04391879 156.88193533 -173.51171875 158.09765625 C-174.59900269 158.99895264 -174.59900269 158.99895264 -175.70825195 159.91845703 C-181.01639612 164.29225797 -186.45030078 168.4293014 -192.046875 172.42578125 C-192.71589844 172.9775 -193.38492188 173.52921875 -194.07421875 174.09765625 C-194.07421875 174.75765625 -194.07421875 175.41765625 -194.07421875 176.09765625 C-194.59757812 176.32453125 -195.1209375 176.55140625 -195.66015625 176.78515625 C-198.92686933 178.56123327 -201.77806018 180.81550112 -204.69921875 183.09765625 C-205.28445313 183.54882812 -205.8696875 184 -206.47265625 184.46484375 C-208.78451202 186.25706222 -211.00373668 188.02717418 -213.07421875 190.09765625 C-212.44515625 190.1234375 -211.81609375 190.14921875 -211.16796875 190.17578125 C-203.72504821 190.66898683 -197.9473498 192.07330778 -192.69921875 197.59765625 C-189.57415582 202.40544537 -188.82341055 205.32961503 -188.81593323 211.17956543 C-188.81225752 211.89322155 -188.80858182 212.60687768 -188.80479473 213.34215975 C-188.79481326 215.73403855 -188.7989659 218.12568493 -188.80297852 220.51757812 C-188.7985913 222.23266853 -188.79328916 223.9477568 -188.78713989 225.6628418 C-188.77563437 229.35799971 -188.77018003 233.05310023 -188.7692585 236.74827576 C-188.7673171 242.59920457 -188.74925762 248.45001505 -188.72850037 254.30090332 C-188.67931115 268.84054312 -188.64848002 283.38021524 -188.62719727 297.91992188 C-188.6106459 309.20716264 -188.58773526 320.49430233 -188.54417652 331.78147554 C-188.52247626 337.588728 -188.51433534 343.3957881 -188.51656926 349.20307827 C-188.51489322 352.83106949 -188.500787 356.45893706 -188.48335648 360.08688354 C-188.47779358 361.75889683 -188.47723764 363.43093616 -188.48229408 365.10295105 C-188.5135906 376.67258106 -188.05147138 387.91883658 -182.01171875 398.16015625 C-181.50511719 399.03800781 -180.99851562 399.91585938 -180.4765625 400.8203125 C-179.37910856 402.60252878 -178.23521302 404.35616485 -177.07421875 406.09765625 C-176.41421875 406.09765625 -175.75421875 406.09765625 -175.07421875 406.09765625 C-174.82285156 406.68804688 -174.57148438 407.2784375 -174.3125 407.88671875 C-169.33405022 416.77568586 -156.49784628 421.535755 -147.26171875 424.41015625 C-140.27681827 425.91670341 -133.50126923 426.24401781 -126.38531494 426.23136902 C-125.43956218 426.23363458 -124.49380943 426.23590013 -123.5193975 426.23823434 C-120.36610917 426.2445392 -117.21286422 426.24374724 -114.05957031 426.24291992 C-111.79217473 426.24591361 -109.52477966 426.24931663 -107.25738525 426.25309753 C-101.1084863 426.26192054 -94.95960127 426.26427494 -88.8106966 426.26491332 C-84.96587543 426.26562481 -81.12105778 426.26776101 -77.27623749 426.27041054 C-64.54598095 426.27918153 -51.81573597 426.28383095 -39.08547714 426.28308006 C-38.40017008 426.28304011 -37.71486301 426.28300015 -37.00878906 426.28295898 C-35.97956273 426.28289766 -35.97956273 426.28289766 -34.92954394 426.2828351 C-23.81571925 426.28242887 -12.70192847 426.2919945 -1.58811358 426.30609735 C9.84340736 426.32048805 21.27490491 426.32718324 32.7064364 426.32650357 C39.11633591 426.32624904 45.52619702 426.32907576 51.93608856 426.33968163 C57.96731685 426.34938876 63.99847025 426.34942384 70.02970123 426.34216499 C72.23709727 426.34112239 74.44449803 426.34346268 76.65188599 426.34952545 C98.4319851 426.4054485 117.59381613 424.8457265 134.03515625 409.07421875 C148.04357873 394.4865006 149.39107796 375.94708967 149.31054688 356.78686523 C149.31466473 355.12100353 149.32013269 353.45514472 149.326828 351.78929138 C149.33844169 348.23835624 149.34107802 344.68757602 149.33647156 341.13662529 C149.32959846 335.51711628 149.34563379 329.89780748 149.36486816 324.27833557 C149.40571855 311.35010055 149.417275 298.42187236 149.42839813 285.49358368 C149.43891836 273.60938731 149.4556945 261.72528874 149.49649382 249.84115273 C149.51480991 244.25828206 149.5187579 238.67564489 149.51155853 233.09275138 C149.51003521 229.62343853 149.5208281 226.15424245 149.5349369 222.68496132 C149.53893314 221.08017289 149.53782549 219.47536216 149.53116417 217.87058258 C149.5227526 215.67531388 149.5328056 213.48084988 149.54724121 211.28562927 C149.54830997 209.44602206 149.54830997 209.44602206 149.54940033 207.56925106 C150.09194917 202.56498636 151.52734518 198.62322288 154.98828125 194.84765625 C160.77463154 191.40046884 167.16317023 189.56376591 173.92578125 190.09765625 C170.16954568 185.1890222 166.11938629 181.74997974 161.11328125 178.16015625 C156.11875506 174.50193178 151.2822722 170.81796978 146.69140625 166.65625 C144.76946583 164.95966985 142.77494362 163.40445752 140.73828125 161.84765625 C136.97288507 158.95913315 133.34359339 155.93184181 129.73828125 152.84765625 C124.62978424 148.48342865 119.40943927 144.29410071 114.10693359 140.16870117 C109.16359431 136.31273041 104.34263145 132.326544 99.546875 128.2890625 C98.68191406 127.56589844 97.81695313 126.84273438 96.92578125 126.09765625 C96.02988281 125.34355469 95.13398437 124.58945312 94.2109375 123.8125 C92.13534118 121.89758334 92.13534118 121.89758334 89.92578125 122.09765625 C89.92578125 121.43765625 89.92578125 120.77765625 89.92578125 120.09765625 C88.02059123 118.48784453 86.12322463 117.00262357 84.11328125 115.53515625 C83.56607422 115.12330078 83.01886719 114.71144531 82.45507812 114.28710938 C79.95585024 112.43616606 77.8961584 111.08778197 74.92578125 110.09765625 C74.92578125 109.43765625 74.92578125 108.77765625 74.92578125 108.09765625 C73.12616967 106.5784636 71.32123266 105.17667024 69.42578125 103.78515625 C63.17491999 99.10737694 57.12417846 94.21916476 51.1328125 89.21362305 C50.483125 88.67777588 49.8334375 88.14192871 49.1640625 87.58984375 C48.58696533 87.1088623 48.00986816 86.62788086 47.4152832 86.13232422 C45.95428345 84.90748816 45.95428345 84.90748816 43.92578125 85.09765625 C43.92578125 84.43765625 43.92578125 83.77765625 43.92578125 83.09765625 C41.95847612 81.45723566 39.98641994 79.92509109 37.92578125 78.41015625 C33.32400587 74.9577304 28.8754817 71.43736244 24.609375 67.5703125 C21.21690466 64.28229738 21.21690466 64.28229738 16.92578125 63.09765625 C16.92578125 62.43765625 16.92578125 61.77765625 16.92578125 61.09765625 C15.22679056 59.69990505 13.46294475 58.38074799 11.67578125 57.09765625 C5.19132401 52.36693018 -0.93593228 47.26928343 -7.07421875 42.09765625 C-9.13079802 40.38193242 -11.19499746 38.67623271 -13.26171875 36.97265625 C-14.61330078 35.85503906 -14.61330078 35.85503906 -15.9921875 34.71484375 C-19.35970602 32.0991727 -19.84237615 33.60228633 -23.01171875 36.09765625 Z " fill="#EC4D26" transform="translate(532.07421875,159.90234375)"/>
<path d="M0 0 C3.50799943 2.79379595 6.44216671 6.200374 7.41059303 10.6360302 C7.56909664 12.97648971 7.57629928 15.26970442 7.5246582 17.61499023 C7.5257534 18.93325554 7.5257534 18.93325554 7.52687073 20.27815247 C7.52340686 23.16264085 7.48460334 26.04548371 7.4453125 28.9296875 C7.43598009 30.93749611 7.428866 32.94531616 7.4238739 34.95314026 C7.4048379 40.22235886 7.35576614 45.49088179 7.300354 50.75982666 C7.24908829 56.1425231 7.22634422 61.5253326 7.20117188 66.90820312 C7.14764431 77.45863798 7.06237252 88.00855788 6.95703125 98.55859375 C8.01668091 98.54749069 9.07633057 98.53638763 10.16809082 98.52494812 C20.17248147 98.42342559 30.17676709 98.3485581 40.1815567 98.29953289 C45.32470736 98.27348071 50.46744092 98.23816263 55.61035156 98.18139648 C60.57706277 98.12692059 65.54337372 98.09714028 70.51036072 98.08420753 C72.40175168 98.07499559 74.29312166 98.05700659 76.18434143 98.02994347 C78.84146821 97.99344538 81.49695826 97.98865695 84.15429688 97.9909668 C84.92969818 97.97299042 85.70509949 97.95501404 86.5039978 97.93649292 C93.56635633 98.00257092 98.05040785 101.11091089 103.33203125 105.55859375 C106.89467547 109.94338663 107.52388308 113.98455077 106.95703125 119.55859375 C105.20353742 125.07107435 102.51206516 128.44783238 97.73828125 131.6484375 C93.27526935 133.92887998 88.70026246 133.69500466 83.79199219 133.67211914 C82.97210815 133.67226517 82.15222412 133.67241119 81.30749512 133.67256165 C78.60210509 133.67186593 75.89678423 133.66408947 73.19140625 133.65625 C71.31382281 133.65438461 69.43623888 133.65296128 67.55865479 133.65196228 C62.62014418 133.64814664 57.68166304 133.63832446 52.74316406 133.6272583 C47.70247801 133.61702371 42.6617872 133.61246027 37.62109375 133.60742188 C27.73305998 133.59670136 17.84504807 133.57963635 7.95703125 133.55859375 C7.967024 135.18898338 7.967024 135.18898338 7.97721863 136.85231018 C8.03809538 147.1072505 8.08303545 157.36215405 8.11246777 167.61723423 C8.12810801 172.88918668 8.14931646 178.16099298 8.18334961 183.43286133 C8.21600137 188.52273427 8.23389661 193.61246683 8.24166298 198.70243645 C8.24719603 200.64206082 8.25800074 202.58167771 8.27422142 204.52124214 C8.29607295 207.24292591 8.29899494 209.96403331 8.29760742 212.68579102 C8.30839325 213.48348907 8.31917908 214.28118713 8.33029175 215.10305786 C8.2986668 220.85497585 7.45510098 226.02645943 3.23828125 230.30078125 C2.65046875 230.67460938 2.06265625 231.0484375 1.45703125 231.43359375 C0.86921875 231.82289063 0.28140625 232.2121875 -0.32421875 232.61328125 C-4.41015117 234.86054408 -8.49618575 235.13506088 -13.04296875 234.55859375 C-18.96423752 232.65377383 -22.46340701 229.54828587 -26.04296875 224.55859375 C-27.66860261 221.30732602 -27.17205835 217.733214 -27.15649414 214.16162109 C-27.15664017 213.29326126 -27.15678619 212.42490143 -27.15693665 211.53022766 C-27.15623836 208.65163703 -27.14844985 205.77311061 -27.140625 202.89453125 C-27.13876052 200.90198807 -27.13733676 198.90944444 -27.13633728 196.91690063 C-27.13251444 191.66600281 -27.12268612 186.41513253 -27.1116333 181.16424561 C-27.10141418 175.80871961 -27.09683858 170.45318918 -27.09179688 165.09765625 C-27.08106366 154.5846233 -27.06399002 144.07161081 -27.04296875 133.55859375 C-28.07534164 133.5674762 -29.10771454 133.57635864 -30.17137146 133.58551025 C-39.92530962 133.66678068 -49.6791786 133.72664755 -59.43337917 133.76584244 C-64.44751085 133.78667076 -69.46136805 133.8149012 -74.4753418 133.86035156 C-79.31885011 133.90397934 -84.16209526 133.92776659 -89.00578499 133.93810272 C-90.848879 133.94546379 -92.69195947 133.95983803 -94.53494072 133.98151398 C-115.15954094 134.21432506 -115.15954094 134.21432506 -121.63572693 128.0401001 C-125.87365053 123.20208927 -126.5236712 119.72994031 -126.44140625 113.453125 C-125.79125442 108.72996317 -123.74321432 105.52010937 -120.04296875 102.55859375 C-111.6485336 96.80264539 -101.48404529 98.05394269 -91.7890625 98.16796875 C-89.91863106 98.175439 -88.04819173 98.18112822 -86.17774963 98.18511963 C-81.28020209 98.20031431 -76.3831371 98.23954227 -71.48577881 98.28393555 C-66.47821579 98.32502199 -61.470574 98.34315909 -56.46289062 98.36328125 C-46.65603923 98.40604306 -36.84954429 98.47421883 -27.04296875 98.55859375 C-27.0518512 97.45691864 -27.06073364 96.35524353 -27.06988525 95.22018433 C-27.15100968 84.832513 -27.21095276 74.44490603 -27.25021744 64.05698967 C-27.27108255 58.71656963 -27.29938087 53.37640555 -27.34472656 48.03613281 C-27.38822221 42.88141492 -27.41211395 37.72694307 -27.42247772 32.57205582 C-27.42986238 30.60646823 -27.44428295 28.64089394 -27.46588898 26.67541122 C-27.49497228 23.91986862 -27.49892268 21.16533963 -27.49707031 18.40966797 C-27.51145142 17.5990239 -27.52583252 16.78837982 -27.54064941 15.95317078 C-27.49668274 9.89941888 -25.73633462 6.33098258 -21.4453125 1.9140625 C-14.41469439 -3.69168367 -7.87026265 -3.72801915 0 0 Z " fill="#EB4D26" transform="translate(522.04296875,287.44140625)"/>
<path d="M0 0 C7.55266481 5.30167451 7.55266481 5.30167451 8.921875 8.22265625 C10.34433914 10.87939861 12.16129925 11.05119064 14.92578125 12.09765625 C16.953125 13.90234375 16.953125 13.90234375 18.86328125 15.97265625 C21.94149406 19.29737892 25.12722156 21.63001336 28.92578125 24.09765625 C38.60277399 31.29018359 48.09271424 38.78247424 57.11328125 46.78515625 C59.61617675 49.00316934 62.16527041 51.05944753 64.86328125 53.03515625 C68.72943731 55.8662784 72.23749587 59.00997675 75.75 62.265625 C78.02135734 64.17813235 80.37810271 65.5810854 82.92578125 67.09765625 C84.28769399 68.20936911 85.62244148 69.35531844 86.92578125 70.53515625 C89.21685115 72.59191218 91.48346082 74.52753425 93.92578125 76.41015625 C94.58578125 76.96703125 95.24578125 77.52390625 95.92578125 78.09765625 C95.92578125 78.75765625 95.92578125 79.41765625 95.92578125 80.09765625 C96.64765625 80.34515625 97.36953125 80.59265625 98.11328125 80.84765625 C101.21748111 82.22730063 103.30760812 83.93699061 105.92578125 86.09765625 C106.79976562 86.80664062 107.67375 87.515625 108.57421875 88.24609375 C114.42365873 93.02285706 120.24709001 97.81547065 125.8828125 102.84375 C129.05055037 105.66018998 132.19523587 108.36067379 135.67578125 110.78515625 C138.92578125 113.09765625 138.92578125 113.09765625 140.70703125 114.921875 C144.02173269 118.17238328 147.7634802 120.81811822 151.5 123.5625 C153.01008253 124.69591795 154.47253924 125.89222141 155.92578125 127.09765625 C155.92578125 127.75765625 155.92578125 128.41765625 155.92578125 129.09765625 C156.69921875 129.43796875 156.69921875 129.43796875 157.48828125 129.78515625 C166.08367599 134.41344572 166.08367599 134.41344572 167.92578125 138.09765625 C168.66957031 138.54238281 169.41335938 138.98710937 170.1796875 139.4453125 C173.11059162 141.20885794 175.36986993 143.19930646 177.86328125 145.53515625 C181.39249823 148.77201206 184.89602753 151.50070385 188.92578125 154.09765625 C190.61113737 155.47345716 192.244859 156.90017786 193.8828125 158.33203125 C199.51859636 163.20272781 205.31817532 167.89014986 211.23828125 172.41015625 C236.85417919 192.25670781 236.85417919 192.25670781 239.92578125 203.09765625 C240.53643599 209.47082753 241.04314395 215.85737645 236.92578125 221.09765625 C228.37014291 228.59048238 219.62086682 228.2720851 208.73828125 228.22265625 C207.87525391 228.22652344 207.01222656 228.23039063 206.12304688 228.234375 C202.47456742 228.22879202 199.09222199 228.12542786 195.484375 227.5234375 C192.8443389 226.86119891 192.8443389 226.86119891 190.17578125 228.16015625 C186.99353925 230.90042019 186.14390323 233.86218196 185.73696709 238.03276253 C185.64758022 240.2856903 185.6244714 242.53069438 185.62280273 244.78540039 C185.6143634 245.64058258 185.60592407 246.49576477 185.597229 247.37686157 C185.57141891 250.21218466 185.55926576 253.04740166 185.546875 255.8828125 C185.5306464 257.89636499 185.51346111 259.90990998 185.49537659 261.92344666 C185.44962206 267.25727688 185.41495208 272.59111911 185.38317871 277.92504883 C185.33173091 286.28989269 185.26490441 294.654635 185.19704056 303.01935959 C185.18027547 305.09351661 185.16391492 307.16767694 185.14796066 309.24184036 C184.97345961 331.53253733 184.49218308 353.81385401 183.92578125 376.09765625 C183.59578125 376.09765625 183.26578125 376.09765625 182.92578125 376.09765625 C182.92578125 326.26765625 182.92578125 276.43765625 182.92578125 225.09765625 C196.45578125 224.76765625 209.98578125 224.43765625 223.92578125 224.09765625 C232.62686542 221.00467509 232.62686542 221.00467509 237.92578125 214.09765625 C238.74499487 207.90674192 238.18009492 202.77916008 234.859375 197.4453125 C231.02811493 192.79362098 226.28843648 189.13099884 221.58056641 185.41015625 C219.18526891 183.51031569 216.84114311 181.54966017 214.48828125 179.59765625 C210.38453146 176.25033059 206.22627839 172.97934962 202.05078125 169.72265625 C196.86824314 165.67995187 191.82266804 161.50808429 186.83178711 157.23193359 C182.25889657 153.33297932 177.54813414 149.6296153 172.8046875 145.94140625 C169.11728772 143.0642423 165.57846827 140.07767448 162.09375 136.95703125 C159.2164803 134.48931885 156.230184 132.17410811 153.23828125 129.84765625 C147.36622941 125.27814372 141.66482025 120.54195301 136.00390625 115.71484375 C129.13439296 109.85907557 122.09990199 104.21744072 114.98828125 98.66015625 C109.49507031 94.36755729 104.11386309 89.96639226 98.7734375 85.484375 C90.8746132 78.86409839 82.84366375 72.40186177 74.84228516 65.90625 C70.90413472 62.70843807 66.97332678 59.50208807 63.05078125 56.28515625 C59.71595012 53.55168811 56.36263085 50.84466259 52.98828125 48.16015625 C49.31581998 45.23493079 45.70617428 42.24502427 42.11328125 39.22265625 C37.97898104 35.75978331 33.78385973 32.41973848 29.48828125 29.16015625 C24.98418233 25.73844291 20.60509769 22.2051322 16.30078125 18.53515625 C15.76308105 18.07681396 15.22538086 17.61847168 14.67138672 17.14624023 C13.60675973 16.23783393 12.54230395 15.32922694 11.47802734 14.42041016 C-3.73610247 1.16291772 -3.73610247 1.16291772 -22.98046875 -2.21484375 C-34.25273974 -1.07623052 -42.89791934 8.4527338 -51.15478516 15.47363281 C-56.1618699 19.71010289 -61.3362942 23.74454721 -66.5078125 27.77734375 C-72.20910913 32.22745085 -77.84526592 36.67977439 -83.23828125 41.50390625 C-85.19167905 43.19962179 -87.20765238 44.77559102 -89.26171875 46.34765625 C-93.13527419 49.31805109 -96.8626207 52.42983303 -100.57421875 55.59765625 C-104.92657308 59.30881552 -109.32239763 62.92404458 -113.87109375 66.39453125 C-117.3100491 69.05301446 -120.65458479 71.82825548 -124.0078125 74.59375 C-126.07421875 76.09765625 -126.07421875 76.09765625 -128.07421875 76.09765625 C-128.40421875 77.08765625 -128.73421875 78.07765625 -129.07421875 79.09765625 C-131.26171875 80.859375 -131.26171875 80.859375 -134.07421875 82.78515625 C-138.60711389 85.98450288 -142.7393924 89.36883136 -146.8359375 93.1015625 C-149.94690132 95.87591244 -153.20429095 98.44590222 -156.47265625 101.03125 C-159.19538978 103.1939017 -161.8869775 105.39109054 -164.57421875 107.59765625 C-168.05650211 110.45391114 -171.55297716 113.28957752 -175.07421875 116.09765625 C-179.39707826 119.54645796 -183.68110478 123.04013077 -187.95703125 126.546875 C-191.65332486 129.57541196 -195.36422949 132.58592583 -199.07421875 135.59765625 C-206.34530061 141.50152614 -213.59952007 147.42562244 -220.83984375 153.3671875 C-225.18738773 156.93144492 -229.54472814 160.47894884 -233.94921875 163.97265625 C-237.83068303 167.06311122 -241.61664502 170.24876705 -245.38671875 173.47265625 C-249.76744998 177.21655536 -254.23176379 180.804573 -258.82421875 184.28515625 C-270.05361305 192.02148795 -270.05361305 192.02148795 -277.07421875 203.09765625 C-277.68647223 208.33320841 -277.68593371 212.6348596 -275.63671875 217.53515625 C-269.56301745 223.60885755 -262.28935598 224.69536596 -254.0078125 224.70703125 C-253.08831314 224.7235675 -252.16881378 224.74010376 -251.22145081 224.75714111 C-248.31813651 224.80527404 -245.41534458 224.82691434 -242.51171875 224.84765625 C-240.52927108 224.87584501 -238.54684738 224.90577646 -236.56445312 224.9375 C-231.73441808 225.01102334 -226.90466715 225.06080927 -222.07421875 225.09765625 C-222.0718304 225.88173607 -222.06944204 226.66581589 -222.06698132 227.4736557 C-222.00766158 246.61490233 -221.93200408 265.75602188 -221.83850384 284.89713287 C-221.79367419 294.15390377 -221.75423047 303.41063729 -221.7277832 312.66748047 C-221.70469863 320.74243593 -221.6711854 328.81727184 -221.62551719 336.89213228 C-221.60172497 341.16164154 -221.58290504 345.43103343 -221.57660484 349.7006073 C-221.57048986 353.73244523 -221.55026379 357.7639834 -221.51994324 361.79570961 C-221.51126439 363.26284503 -221.5074189 364.7300198 -221.50921059 366.19717979 C-221.53124032 392.59838956 -213.28747878 415.56814381 -195.07421875 435.09765625 C-178.47695445 451.31704938 -154.43349673 458.259506 -131.79844666 458.23809814 C-130.80157556 458.24106927 -129.80470446 458.24404039 -128.77762514 458.24710155 C-125.4571288 458.25573175 -122.13666875 458.25729196 -118.81616211 458.25878906 C-116.4270317 458.26342127 -114.03790202 458.26844647 -111.64877319 458.27383423 C-105.17116699 458.28692172 -98.69356769 458.29343358 -92.21595073 458.29784489 C-88.16354859 458.30061673 -84.11114879 458.30485575 -80.05874825 458.30934906 C-68.8164774 458.32153448 -57.57420842 458.33183522 -46.33193111 458.33522415 C-45.2545956 458.3355535 -45.2545956 458.3355535 -44.15549574 458.3358895 C-43.43565373 458.33610778 -42.71581172 458.33632606 -41.97415632 458.33655095 C-40.51572986 458.3369944 -39.05730341 458.33744096 -37.59887695 458.33789062 C-36.51375575 458.33822277 -36.51375575 458.33822277 -35.4067129 458.33856162 C-23.6974861 458.34250562 -11.98832168 458.35995072 -0.27911895 458.38325015 C11.77169794 458.40703378 23.82248362 458.41942918 35.87332433 458.42059207 C42.62764638 458.4215049 49.38188712 458.42715764 56.1361866 458.44541168 C62.49495267 458.4619639 68.8535651 458.46401323 75.21234512 458.45527267 C77.53578161 458.45450611 79.85922661 458.45879428 82.18264198 458.46873093 C108.62270895 458.57510514 133.68506371 454.49830856 153.92578125 436.09765625 C154.58578125 436.09765625 155.24578125 436.09765625 155.92578125 436.09765625 C156.17972656 435.52144531 156.43367188 434.94523437 156.6953125 434.3515625 C158.06274283 431.84677743 159.64786865 430.1009632 161.61328125 428.03515625 C173.14201607 415.2115273 177.76582897 400.81551191 180.92578125 384.09765625 C181.25782015 382.43073122 181.59065792 380.76396392 181.92578125 379.09765625 C182.25578125 379.09765625 182.58578125 379.09765625 182.92578125 379.09765625 C182.43633172 401.12288528 176.04257662 420.39411204 159.92578125 436.09765625 C159.28382813 436.7628125 158.641875 437.42796875 157.98046875 438.11328125 C146.27107806 450.17750196 133.08612762 456.05006604 116.92724037 459.6461525 C115.61643692 459.94185311 114.3091278 460.25360696 113.00639915 460.58306503 C86.72258705 467.00076059 57.09355479 464.32721004 30.26824522 464.16437817 C24.41637811 464.13065557 18.56446586 464.10774314 12.71255493 464.08306885 C2.91444016 464.04003841 -6.88359833 463.98823984 -16.68164062 463.93115234 C-27.9802542 463.86544438 -39.27886401 463.81453726 -50.57758391 463.77121043 C-61.5148 463.72887616 -72.4519372 463.67555931 -83.38908005 463.61746979 C-88.01794007 463.59310902 -92.64679238 463.57265219 -97.27568436 463.55544281 C-102.71793842 463.53475754 -108.16005776 463.50444348 -113.60222054 463.46685982 C-115.59030848 463.45465636 -117.57841965 463.44570574 -119.56653786 463.44035912 C-129.60439524 463.41133587 -139.21154517 463.20373791 -149.07421875 461.09765625 C-150.4171082 460.8673212 -151.76079478 460.64155259 -153.10546875 460.421875 C-178.52520446 455.75586495 -196.60680236 441.87320341 -211.2578125 420.984375 C-222.21727797 404.01688499 -224.31946746 386.72041871 -224.46899414 366.99584961 C-224.48657905 365.55510486 -224.504981 364.1143699 -224.52412415 362.67364502 C-224.56318382 359.60622895 -224.59664702 356.53882515 -224.62550545 353.47129631 C-224.67124302 348.61660855 -224.7301358 343.76213108 -224.79063416 338.90760803 C-224.88477562 331.23360042 -224.97052172 323.55952688 -225.05248016 315.88538033 C-225.19951804 302.12346387 -225.35662354 288.36166782 -225.52340502 274.5999766 C-225.58146249 269.7771265 -225.63439475 264.95425559 -225.68314183 260.13130271 C-225.71424648 257.13513829 -225.74910749 254.13902561 -225.78489494 251.14291382 C-225.80063602 249.75702723 -225.81477757 248.37112138 -225.82717896 246.98520088 C-225.84433803 245.08973533 -225.86777209 243.19432971 -225.89149475 241.29893494 C-225.90272401 240.23991942 -225.91395327 239.18090391 -225.9255228 238.08979702 C-226.0777714 235.0261679 -226.5107408 232.11055459 -227.07421875 229.09765625 C-230.87504967 227.85109511 -234.60630261 228.03963399 -238.55078125 228.140625 C-240.04165306 228.16303393 -241.53253948 228.18448705 -243.0234375 228.20507812 C-245.35376254 228.24195499 -247.68332576 228.28474878 -250.01318359 228.34448242 C-260.19779402 228.59296695 -268.92655033 228.40102415 -277.57421875 222.34765625 C-281.04800192 217.13698149 -281.9532815 210.23982549 -281.07421875 204.09765625 C-278.19369216 192.84901759 -270.77503205 185.83504061 -261.34375 179.60546875 C-258.8900679 178.02751985 -258.8900679 178.02751985 -256.07421875 175.66015625 C-254.07421875 174.09765625 -254.07421875 174.09765625 -252.07421875 174.09765625 C-251.74421875 173.10765625 -251.41421875 172.11765625 -251.07421875 171.09765625 C-249.1484375 169.6328125 -249.1484375 169.6328125 -246.76171875 168.16015625 C-243.40985004 166.08255168 -240.84629299 163.89065181 -238.07421875 161.09765625 C-236.15548191 159.59423042 -234.21561734 158.11759256 -232.26171875 156.66015625 C-227.15560826 152.80092075 -222.26431395 148.75113256 -217.44921875 144.53515625 C-201.45148318 130.53201803 -201.45148318 130.53201803 -195.69921875 126.84765625 C-192.99410324 125.16870596 -192.99410324 125.16870596 -190.7734375 122.79296875 C-188.05684614 120.08030878 -185.228794 117.65698012 -182.26171875 115.22265625 C-178.82132319 112.3942818 -175.42683945 109.53826642 -172.13671875 106.53515625 C-168.29949578 103.1305221 -164.09971048 100.30710363 -159.8605957 97.43774414 C-155.96885222 94.78111505 -152.43274203 91.93678182 -148.953125 88.76953125 C-146.95350297 86.9902418 -144.88340505 85.35414695 -142.76171875 83.72265625 C-136.01173388 78.53215064 -129.38867877 73.17928014 -123.01171875 67.53515625 C-119.34447811 64.29277885 -115.54538385 61.24093882 -111.7109375 58.19921875 C-108.97909659 56.02184036 -106.27439056 53.81415836 -103.57421875 51.59765625 C-98.44105151 47.38918723 -93.28827481 43.20570042 -88.07421875 39.09765625 C-87.36136719 38.52789062 -86.64851562 37.958125 -85.9140625 37.37109375 C-84.07421875 36.09765625 -84.07421875 36.09765625 -82.07421875 36.09765625 C-81.74421875 35.10765625 -81.41421875 34.11765625 -81.07421875 33.09765625 C-80.26984375 32.78828125 -79.46546875 32.47890625 -78.63671875 32.16015625 C-75.93672532 31.36844484 -75.93672532 31.36844484 -75.07421875 29.09765625 C-74.07421875 27.09765625 -74.07421875 27.09765625 -71.44921875 25.84765625 C-70.66546875 25.60015625 -69.88171875 25.35265625 -69.07421875 25.09765625 C-69.07421875 24.43765625 -69.07421875 23.77765625 -69.07421875 23.09765625 C-67.74609375 21.90625 -67.74609375 21.90625 -65.82421875 20.53515625 C-65.09589844 20.00535156 -64.36757813 19.47554687 -63.6171875 18.9296875 C-62.35841797 18.02283203 -62.35841797 18.02283203 -61.07421875 17.09765625 C-55.32218598 12.88676352 -49.65353963 8.72958557 -44.44921875 3.84765625 C-31.05432471 -8.33393217 -15.25010162 -9.43684814 0 0 Z " fill="#FBF7F6" transform="translate(532.07421875,159.90234375)"/>
<path d="M0 0 C-0.33 0.99 -0.66 1.98 -1 3 C-7.435344 3.81987194 -13.7034827 4.15445049 -20.1875 4.125 C-21.05052734 4.12886719 -21.91355469 4.13273437 -22.80273438 4.13671875 C-26.45121383 4.13113577 -29.83355926 4.02777161 -33.44140625 3.42578125 C-36.08144235 2.76354266 -36.08144235 2.76354266 -38.75 4.0625 C-41.932242 6.80276394 -42.78187802 9.76452571 -43.18881416 13.93510628 C-43.27820103 16.18803405 -43.30130985 18.43303813 -43.30297852 20.68774414 C-43.31141785 21.54292633 -43.31985718 22.39810852 -43.32855225 23.27920532 C-43.35436234 26.11452841 -43.36651549 28.94974541 -43.37890625 31.78515625 C-43.39513485 33.79870874 -43.41232014 35.81225373 -43.43040466 37.82579041 C-43.47615919 43.15962063 -43.51082917 48.49346286 -43.54260254 53.82739258 C-43.59405034 62.19223644 -43.66087684 70.55697875 -43.72874069 78.92170334 C-43.74550578 80.99586036 -43.76186633 83.07002069 -43.77782059 85.14418411 C-43.95232164 107.43488108 -44.43359817 129.71619776 -45 152 C-45.33 152 -45.66 152 -46 152 C-46 102.17 -46 52.34 -46 1 C-5 0 -5 0 0 0 Z " fill="#FDFDFD" transform="translate(761,384)"/>
<path d="M0 0 C0.66 0.33 1.32 0.66 2 1 C2.30859375 3.51171875 2.30859375 3.51171875 2.4375 6.6875 C2.75419316 11.60797338 3.35652874 14.86239281 6 19 C4.68 19.33 3.36 19.66 2 20 C-0.64784597 13.19125322 -2.39657011 7.18971032 0 0 Z " fill="#FBEFED" transform="translate(252,361)"/>
<path d="M0 0 C11.55 0.33 23.1 0.66 35 1 C35 1.33 35 1.66 35 2 C30.49786378 2.16773186 25.99555027 2.32827877 21.49291992 2.48217773 C19.96127431 2.53554122 18.42969573 2.59086614 16.89819336 2.64819336 C14.69659883 2.73026252 12.49485949 2.80527067 10.29296875 2.87890625 C9.60849167 2.90594131 8.92401459 2.93297638 8.21879578 2.96083069 C5.1530145 3.05703182 2.94080618 2.98026873 0 2 C0 1.34 0 0.68 0 0 Z " fill="#FAF5F2" transform="translate(380,618)"/>
<path d="M0 0 C3.40812747 1.89564486 5.73801062 3.90086583 7.75 7.3125 C7.42 8.3025 7.09 9.2925 6.75 10.3125 C6.43546875 9.83039063 6.1209375 9.34828125 5.796875 8.8515625 C5.36890625 8.21992188 4.9409375 7.58828125 4.5 6.9375 C3.87351562 5.99777344 3.87351562 5.99777344 3.234375 5.0390625 C0.90323429 2.32757778 -1.1329987 1.40200331 -4.6875 1.1171875 C-5.533125 1.14039063 -6.37875 1.16359375 -7.25 1.1875 C-8.095625 1.20554687 -8.94125 1.22359375 -9.8125 1.2421875 C-10.616875 1.26539063 -11.42125 1.28859375 -12.25 1.3125 C-13.57 1.3125 -14.89 1.3125 -16.25 1.3125 C-13.49315992 -4.20118016 -4.60209154 -2.13330599 0 0 Z " fill="#EB3F1D" transform="translate(520.25,286.6875)"/>
<path d="M0 0 C-0.33 0.99 -0.66 1.98 -1 3 C-4.28519475 4.09506492 -6.73663415 4.09960608 -10.1875 4.0625 C-11.81751953 4.04896484 -11.81751953 4.04896484 -13.48046875 4.03515625 C-14.31191406 4.02355469 -15.14335938 4.01195312 -16 4 C-16 3.34 -16 2.68 -16 2 C-14.27192682 1.66104344 -12.54248026 1.32908475 -10.8125 1 C-9.84957031 0.814375 -8.88664063 0.62875 -7.89453125 0.4375 C-5.2065794 0.03122388 -2.71228981 -0.07933572 0 0 Z " fill="#F9EDE9" transform="translate(651,616)"/>
<path d="M0 0 C0.33 0 0.66 0 1 0 C0.85924795 2.93782469 0.7126162 5.87515171 0.5625 8.8125 C0.50352539 10.06256836 0.50352539 10.06256836 0.44335938 11.33789062 C0.40146484 12.14033203 0.35957031 12.94277344 0.31640625 13.76953125 C0.27974854 14.50792236 0.24309082 15.24631348 0.20532227 16.00708008 C0 18 0 18 -1 21 C-1.99 21.33 -2.98 21.66 -4 22 C-3.81824219 21.12601563 -3.81824219 21.12601563 -3.6328125 20.234375 C-2.25920651 13.51427184 -1.09358533 6.77092195 0 0 Z " fill="#FBE9E4" transform="translate(714,539)"/>
<path d="M0 0 C0.33 0 0.66 0 1 0 C1.66 4.62 2.32 9.24 3 14 C2.01 14.33 1.02 14.66 0 15 C-1.16968953 12.66062093 -1.13364221 11.22630632 -1.125 8.625 C-1.12886719 7.46871094 -1.12886719 7.46871094 -1.1328125 6.2890625 C-1.00389788 4.0671811 -0.61383717 2.13381492 0 0 Z " fill="#F9EDE8" transform="translate(310,540)"/>
<path d="M0 0 C2.37948772 0.17625835 3.70225849 0.69719773 5.37890625 2.40234375 C6.62115486 3.90649092 7.81376056 5.45129851 9 7 C5.2241456 6.47557578 2.77627845 5.67345333 0 3 C0 2.01 0 1.02 0 0 Z " fill="#FDF8F5" transform="translate(666,271)"/>
<path d="M0 0 C5.75 1.875 5.75 1.875 8 3 C7.67 4.32 7.34 5.64 7 7 C5.82780457 6.21654285 4.66236332 5.42297164 3.5 4.625 C2.8503125 4.18414062 2.200625 3.74328125 1.53125 3.2890625 C1.0259375 2.86367187 0.520625 2.43828125 0 2 C0 1.34 0 0.68 0 0 Z " fill="#FBEEE9" transform="translate(624,238)"/>
<path d="M0 0 C0.66 0.33 1.32 0.66 2 1 C-0.375 2.5625 -0.375 2.5625 -3 4 C-3.66 3.67 -4.32 3.34 -5 3 C-2.625 1.4375 -2.625 1.4375 0 0 Z M-7 4 C-6.01 4.33 -5.02 4.66 -4 5 C-4.66 6.32 -5.32 7.64 -6 9 C-6.99 8.67 -7.98 8.34 -9 8 C-8.34 6.68 -7.68 5.36 -7 4 Z " fill="#FAF2EF" transform="translate(676,604)"/>
<path d="M0 0 C3.3 0 6.6 0 10 0 C10 0.66 10 1.32 10 2 C3.375 3.125 3.375 3.125 0 2 C0 1.34 0 0.68 0 0 Z " fill="#FAE8E3" transform="translate(380,618)"/>
<path d="M0 0 C1.32 0.66 2.64 1.32 4 2 C4 3.32 4 4.64 4 6 C2.02 4.68 0.04 3.36 -2 2 C-1.34 1.34 -0.68 0.68 0 0 Z " fill="#FAEEEA" transform="translate(642,251)"/>
<path d="M0 0 C3.25543229 0.34879632 4.01873107 1.02133261 6.25 3.5625 C6.8275 4.366875 7.405 5.17125 8 6 C5.69 5.34 3.38 4.68 1 4 C1.33 3.01 1.66 2.02 2 1 C1.34 0.67 0.68 0.34 0 0 Z " fill="#FBF0ED" transform="translate(698,344)"/>
<path d="M0 0 C0.66 0.33 1.32 0.66 2 1 C-1.465 3.97 -1.465 3.97 -5 7 C-5.66 6.67 -6.32 6.34 -7 6 C-3.375 1.125 -3.375 1.125 0 0 Z " fill="#EB3A16" transform="translate(472,224)"/>
<path d="M0 0 C2.9375 0.75 2.9375 0.75 6 2 C6.875 4.125 6.875 4.125 7 6 C3.75728494 5.4409112 2.06942576 4.5867822 0 2 C0 1.34 0 0.68 0 0 Z " fill="#FCEEE9" transform="translate(697,297)"/>
<path d="M0 0 C0.66 0 1.32 0 2 0 C2 0.66 2 1.32 2 2 C2.66 2.33 3.32 2.66 4 3 C1.36 3.99 -1.28 4.98 -4 6 C-3.67 5.01 -3.34 4.02 -3 3 C-2.34 3 -1.68 3 -1 3 C-0.67 2.01 -0.34 1.02 0 0 Z " fill="#FAEFEB" transform="translate(500,156)"/>
<path d="M0 0 C2.97 1.98 2.97 1.98 6 4 C4.02 4.99 4.02 4.99 2 6 C1.34 5.34 0.68 4.68 0 4 C0 2.68 0 1.36 0 0 Z " fill="#FCFBFB" transform="translate(571,192)"/>
</svg>
